<svg id="Layer_2" data-name="Layer 2" xmlns="http://www.w3.org/2000/svg" viewBox="0 0 332.04 229.03"><defs><style>.cls-1{fill:#fff;}</style></defs><path class="cls-1" d="M35,238.88c31,70.32,160.18,100.21,321.54,66.62l-.62-198.72C190.06,74,61.17,103,33.25,170.9,19.9,203.38,33.44,235.43,35,238.88Zm210.53,18.74c-28.27-.72-56.68-23.37-56.36-53.61.32-29.51,27.83-51.24,54.71-52.38,31.16-1.33,62.36,25,60.43,56.5C302.51,236.85,273.94,258.34,245.49,257.62Z" transform="translate(-25.96 -91.77)"/><path class="cls-1" d="M33.66,239.63c6.43,14.53,16.9,26.91,29.24,36.8,14.46,11.58,31.22,20,48.57,26.27,21,7.63,43.1,12.21,65.27,14.94a464.71,464.71,0,0,0,79,2.54,640.65,640.65,0,0,0,89.34-10.88Q351,308.18,356.9,307a1.52,1.52,0,0,0,1.1-1.45l-.24-77.42-.25-77.43-.13-43.87a1.52,1.52,0,0,0-1.1-1.45A695.16,695.16,0,0,0,245.67,92.1c-31-1.06-62.25.28-92.86,5.58-24.38,4.22-48.71,11-70.72,22.49-17.16,9-33.18,21.23-43.73,37.7-14.85,23.2-15.69,52.95-6.09,78.35.43,1.15.9,2.29,1.39,3.41.78,1.77,3.36.24,2.59-1.51-.37-.85-.87-2.09-1.32-3.32-.81-2.19-1.52-4.41-2.17-6.65a99.2,99.2,0,0,1-3.64-20.59c-1-15.15,1.84-30.45,9.22-43.8,9.11-16.45,23.91-28.92,40.05-38.15,20.61-11.78,43.72-18.86,66.9-23.49,29.42-5.86,59.57-7.73,89.51-7.28a661,661,0,0,1,106.42,10.7q7.14,1.27,14.26,2.69l-1.1-1.45.24,77.42.24,77.43L355,305.5l1.1-1.45a654.49,654.49,0,0,1-90.21,12.55,487.18,487.18,0,0,1-79.3-.87c-22.57-2.21-45.07-6.29-66.66-13.29-17.73-5.76-35-13.56-50.15-24.51-12.72-9.21-23.85-20.85-31.14-34.84q-1.28-2.44-2.39-5C35.47,236.36,32.89,237.88,33.66,239.63Z" transform="translate(-25.96 -91.77)"/><path class="cls-1" d="M245.49,256.12c-21.58-.62-43.44-14.13-51.55-34.53a46.2,46.2,0,0,1-.57-32.69c3.68-10.2,11-18.93,19.8-25.1a58.64,58.64,0,0,1,30-10.64,59.51,59.51,0,0,1,54.48,31.2,45.28,45.28,0,0,1,3.82,32c-5.54,21.49-26.41,36.88-48,39.42a56.75,56.75,0,0,1-8,.38c-1.93-.05-1.93,2.95,0,3A62.09,62.09,0,0,0,278.84,250c9.82-6,18.18-14.7,22.85-25.27a47.89,47.89,0,0,0,1.9-33.84c-3.53-11-10.83-20.59-20-27.63a63.17,63.17,0,0,0-32.11-12.91A61.08,61.08,0,0,0,194,180.44a49.44,49.44,0,0,0-5.26,34.2c2.37,11.25,8.87,21.36,17.47,28.88a63.57,63.57,0,0,0,30.94,14.77,61.94,61.94,0,0,0,8.38.83C247.42,259.17,247.42,256.17,245.49,256.12Z" transform="translate(-25.96 -91.77)"/></svg>