<svg id="Layer_2" data-name="Layer 2" xmlns="http://www.w3.org/2000/svg" viewBox="0 0 139.41 360.03"><defs><style>.cls-1{fill:#3f0071;}.cls-2{fill:#610094;}</style></defs><path class="cls-1" d="M198.88,22c-31.75,1.46-54.28,95-58.4,158.37-5.72,87.85,18.77,197.1,53.07,199.65,32.33,2.4,74.18-89.92,76.59-174.1C272.7,116.83,231.59,20.46,198.88,22ZM247.05,191c1.56,74.87-26.52,155.53-46.85,154.23-21-1.34-35.48-90.51-29.73-163.31,3.7-46.78,18.12-117.12,36.77-117.45C225.57,64.17,245.8,131.48,247.05,191Z" transform="translate(-139.65 -21.94)"/><path class="cls-2" d="M212.18,23.93c-30.57,1-54.23,92.48-58.4,158.37-5.62,88.87,20,197.74,53.08,199.65C239.16,383.82,280.8,283.58,279,192,277.44,112.38,242.72,23,212.18,23.93Zm48.3,164.84c2.68,77.14-26.34,159.8-47,158.46-21.12-1.36-35.4-90.82-29.72-163.31,3.66-46.82,18-117.09,36.76-117.45C238.72,66.12,258.49,131.64,260.48,188.77Z" transform="translate(-139.65 -21.94)"/></svg>