<svg id="Layer_2" data-name="Layer 2" xmlns="http://www.w3.org/2000/svg" viewBox="0 0 400 400"><defs><style>.cls-1{fill:#3f0071;}.cls-2{fill:#610094;}.cls-3{fill:#fff;}</style></defs><path d="M2,167.54c-17.28,116.64,82.64,232.57,204.19,229,114.56-3.4,207.14-111.76,192.29-225C386.09,77.36,302.38,1.65,203.17,0,102.07-1.62,15.79,74.16,2,167.54Z"/><path class="cls-1" d="M242.14,37.15c-28-7.4-73.1,67.68-94,121.61-29,74.75-37.56,176.34-8.46,187.93,27.43,10.91,89-57.84,114.11-130.3C280.33,139.74,271,44.79,242.14,37.15Zm-4.36,160c-19.1,65.46-65.53,127.85-82.84,121.17-17.9-6.91-6.08-88.32,18.81-150,16-39.62,47.73-96.77,64-92C253.79,81.11,253,145.11,237.78,197.18Z"/><path class="cls-2" d="M253.15,42.5c-28-7.4-73.1,67.68-94,121.61-29,74.75-37.55,176.34-8.45,187.92,27.43,10.92,89-57.83,114.1-130.29C291.35,145.09,282,50.14,253.15,42.5Zm-4.35,160C229.7,268,183.27,330.38,166,323.7c-17.9-6.91-6.08-88.32,18.81-150,16-39.62,47.73-96.77,64-92C264.8,86.46,264,150.46,248.8,202.53Z"/><path class="cls-3" d="M58.43,128.2c-.15,15.31,22.93,31.12,57.67,39.17l17.41-35.91c-31.8-19.45-60.2-25.16-70.73-14.14A16.92,16.92,0,0,0,58.43,128.2Zm38.08,19.59a10.62,10.62,0,1,1,16.33-3.27C109.84,150.29,101.54,151.85,96.51,147.79Z"/><path class="cls-3" d="M56.93,128.2c0,7.42,4.74,13.82,10,18.58,7.77,7,17.42,11.75,27.1,15.48a161.52,161.52,0,0,0,21.64,6.56,1.53,1.53,0,0,0,1.69-.69q8.72-18,17.41-35.91a1.54,1.54,0,0,0-.53-2.05c-12.9-7.87-26.88-14.84-41.69-18.22-8.94-2-20.48-3.43-28.46,2.26a17.63,17.63,0,0,0-7.19,14,1.5,1.5,0,0,0,3,0A14.59,14.59,0,0,1,65.37,117a20.06,20.06,0,0,1,10.48-3.6c11.4-1,23.13,2.88,33.49,7.22a173,173,0,0,1,23.41,12.14l-.54-2q-8.7,18-17.41,35.9l1.7-.69c-11.75-2.73-23.4-6.49-34.07-12.2-7.3-3.9-14.89-8.9-19.44-16a17.63,17.63,0,0,1-3.06-9.51A1.5,1.5,0,0,0,56.93,128.2Z"/><path class="cls-3" d="M97.57,146.72a9.45,9.45,0,0,1-2.75-10.87,9.22,9.22,0,0,1,9.4-5.31,9.31,9.31,0,0,1,8,7.16,8.59,8.59,0,0,1-3.51,9.23,9.77,9.77,0,0,1-11.12-.21,1.55,1.55,0,0,0-2.12,0,1.52,1.52,0,0,0,0,2.13,12.82,12.82,0,0,0,13.35,1.45,11.52,11.52,0,0,0,6.59-11.58,12.17,12.17,0,1,0-19.94,10.13C96.93,150.07,99.06,148,97.57,146.72Z"/><path class="cls-3" d="M233.59,195.54l76.47,35.17,21.71,10a3.1,3.1,0,0,0,4.11-1.07,3,3,0,0,0-1.08-4.11l-76.47-35.17-21.71-10a3.1,3.1,0,0,0-4.11,1.07,3,3,0,0,0,1.08,4.11Z"/><path class="cls-3" d="M349.79,249.58a4.5,4.5,0,1,0-4.5-4.5,4.56,4.56,0,0,0,4.5,4.5Z"/><path class="cls-3" d="M191.89,212.4l76.47,35.18,21.71,10a3.08,3.08,0,0,0,4.11-1.08,3,3,0,0,0-1.08-4.1l-76.46-35.18-21.72-10a3.11,3.11,0,0,0-4.11,1.08,3,3,0,0,0,1.08,4.1Z"/><path class="cls-3" d="M308.09,266.45a4.5,4.5,0,1,0-4.5-4.5,4.55,4.55,0,0,0,4.5,4.5Z"/></svg>