<svg id="Layer_2" data-name="Layer 2" xmlns="http://www.w3.org/2000/svg" viewBox="0 0 400 400"><defs><style>.cls-1{fill:#e9dfd3;}.cls-2{fill:#fff;}.cls-3{fill:#fcfbfc;}.cls-4{fill:#bcafa7;}.cls-5{fill:#010101;}</style></defs><path class="cls-1" d="M193.29,373.46c-97.56-4.22-174.44-95-162.22-192.59,11.17-89.08,93.36-157.53,185-149.1C310.93,40.5,380.51,128.36,370,221.6,360,310,281,377.25,193.29,373.46Z"/><path class="cls-2" d="M233.33,115.29c-19.26-7.12-45.28,12.13-53.85,34.52-9.74,25.48.94,60.78,22.09,66.26,18.7,4.85,40.33-15,48.32-34.51C259.62,157.76,253.83,122.88,233.33,115.29Z"/><path class="cls-3" d="M287.34,151.73c-16.8-5.83-39.51,9.94-47,28.28-8.5,20.88.82,49.8,19.27,54.3,16.32,4,35.19-12.26,42.16-28.28C310.28,186.53,305.23,157.94,287.34,151.73Z"/><path class="cls-4" d="M107.81,267.14a16.53,16.53,0,1,1,17-14.64A16.82,16.82,0,0,1,107.81,267.14Z"/><path class="cls-4" d="M179.89,105.17a16.25,16.25,0,1,1,16.75-14.4A16.53,16.53,0,0,1,179.89,105.17Z"/><path class="cls-4" d="M148.52,123.32a9.19,9.19,0,1,1,9.48-8.14A9.34,9.34,0,0,1,148.52,123.32Z"/><path class="cls-4" d="M333.5,201.4a9.58,9.58,0,1,1,9.87-8.48A9.74,9.74,0,0,1,333.5,201.4Z"/><path class="cls-4" d="M91.18,153a7.27,7.27,0,1,1,7.5-6.45A7.4,7.4,0,0,1,91.18,153Z"/><path class="cls-4" d="M238.83,345.31a9.05,9.05,0,1,1,9.34-8A9.2,9.2,0,0,1,238.83,345.31Z"/><path class="cls-4" d="M332.93,272.6a9.28,9.28,0,1,1,9.57-8.22A9.44,9.44,0,0,1,332.93,272.6Z"/><path class="cls-5" d="M191.91,105.63l69-6.9-2.76-23.47Z"/><path class="cls-5" d="M297.52,118.74q13.82,25.55,27.61,51.09L310,100.8Z"/><path class="cls-5" d="M203,162.23a9.84,9.84,0,0,0,6.91,1.38c5.52-1.13,10-8.39,9.66-17.94,2.29-.81,4.91-1.23,6.9,0,5.61,3.46,4.23,18.84-2.76,29-5.7,8.28-17,15.84-22.09,12.42C197.35,184.23,197.66,173.77,203,162.23Z"/><path class="cls-2" d="M216.07,178.11c-1.29,2-4,3.62-5.52,2.76s-1.51-4.59,0-6.9c1.29-2,4-3.62,5.52-2.76S217.58,175.79,216.07,178.11Z"/><path class="cls-5" d="M259,189.85a9.86,9.86,0,0,0,6.91,1.39c5.52-1.14,10-8.4,9.66-18,2.29-.8,4.91-1.23,6.9,0,5.61,3.46,4.23,18.84-2.76,29-5.7,8.28-17,15.84-22.09,12.42C253.44,211.85,253.75,201.39,259,189.85Z"/><path class="cls-2" d="M273.54,205.83c-1.29,2-4,3.62-5.52,2.76s-1.51-4.58,0-6.9c1.29-2,4-3.62,5.52-2.76S275.05,203.52,273.54,205.83Z"/><path class="cls-5" d="M192.21,261.63c21.95-12.12,42.5-10.63,49.24-.95,1.17,1.68,4,6.53,1.84,16.14,6.57-7,9.43-15.77,6.74-22.58-4.87-12.33-25.13-11-27.9-10.73C204.84,245,194.43,258.58,192.21,261.63Z"/><path class="cls-4" d="M182.93,372.77c-95.81-9.6-165.57-96.86-154.62-190.52C39,91.05,122.75,23,216.07,31.77c-81.23,8.29-146.3,70.66-157.39,149.1C46.85,264.63,99.34,347.15,182.93,372.77Z"/></svg>